HIERARCHY
ROOT hip
{
	OFFSET 0.000000 0.000000 0.000000 
	CHANNELS 6 Xposition Yposition Zposition Xrotation Zrotation Yrotation
	JOINT abdomen
	{
		OFFSET 0.000000 3.402643 0.000000 
		CHANNELS 3 Xrotation Zrotation Yrotation
		JOINT chest
		{
			OFFSET 0.000000 8.438565 -0.680529 
			CHANNELS 3 Xrotation Zrotation Yrotation
			JOINT neck
			{
				OFFSET 0.000000 10.207942 -0.272212 
				CHANNELS 3 Xrotation Zrotation Yrotation
				JOINT head
				{
					OFFSET 0.000000 3.130431 0.000000 
					CHANNELS 3 Xrotation Zrotation Yrotation
					End Site
					{
						OFFSET 0.000000 3.130435 0.000000 
					}
				}
			}
			JOINT lCollar
			{
				OFFSET 3.470700 6.669187 -0.816635 
				CHANNELS 3 Yrotation Zrotation Xrotation
				JOINT lShldr
				{
					OFFSET 3.198488 0.000000 0.000000 
					CHANNELS 3 Zrotation Yrotation Xrotation
					JOINT lForeArm
					{
						OFFSET 10.139888 0.000000 0.000000 
						CHANNELS 3 Yrotation Zrotation Xrotation
						JOINT lHand
						{
							OFFSET 8.370511 0.000000 0.000000 
							CHANNELS 3 Zrotation Yrotation Xrotation
							End Site
							{
								OFFSET 4.083176 0.000000 0.000000 
							}
						}
					}
				}
			}
			JOINT rCollar
			{
				OFFSET -3.470700 6.669187 -0.816635 
				CHANNELS 3 Yrotation Zrotation Xrotation
				JOINT rShldr
				{
					OFFSET -3.198488 0.000000 0.000000 
					CHANNELS 3 Zrotation Yrotation Xrotation
					JOINT rForeArm
					{
						OFFSET -10.139888 0.000000 0.000000 
						CHANNELS 3 Yrotation Zrotation Xrotation
						JOINT rHand
						{
							OFFSET -8.370511 0.000000 0.000000 
							CHANNELS 3 Zrotation Yrotation Xrotation
							End Site
							{
								OFFSET -4.083176 0.000000 0.000000 
							}
						}
					}
				}
			}
		}
	}
	JOINT lThigh
	{
		OFFSET 5.308129 -1.633274 1.361059 
		CHANNELS 3 Xrotation Zrotation Yrotation
		JOINT lShin
		{
			OFFSET -2.041588 -20.007561 0.000000 
			CHANNELS 3 Xrotation Zrotation Yrotation
			JOINT lFoot
			{
				OFFSET 0.000000 -19.190928 -1.224953 
				CHANNELS 3 Xrotation Yrotation Zrotation
				End Site
				{
					OFFSET 0.000000 -2.449906 4.627600 
				}
			}
		}
	}
	JOINT rThigh
	{
		OFFSET -5.308129 -1.633274 1.361059 
		CHANNELS 3 Xrotation Zrotation Yrotation
		JOINT rShin
		{
			OFFSET 2.041588 -20.007561 0.000000 
			CHANNELS 3 Xrotation Zrotation Yrotation
			JOINT rFoot
			{
				OFFSET 0.000000 -19.190928 -1.224953 
				CHANNELS 3 Xrotation Yrotation Zrotation
				End Site
				{
					OFFSET 0.000000 -2.449906 4.627600 
				}
			}
		}
	}
}
MOTION
Frames: 13
Frame Time: 0.033333
-0.068169 43.336952 0.113344 0.255372 -6.142518 82.012810 0.000000 0.000000 0.000000 -0.341867 -1.162089 6.198339 12.745636 0.858071 0.017028 -11.748297 -2.472332 -18.761026 -7.583114 21.974697 25.000000 -99.164268 -14.741044 -4.789189 -40.215496 -1.327347 22.624811 2.962258 6.751526 47.953121 -10.952453 -19.328718 20.552034 77.039841 19.478399 72.584717 13.561319 -12.499066 -12.665032 21.473452 2.083503 -9.580204 3.414007 8.217126 19.976717 50.809566 4.522011 -1.218517 25.179115 -9.171606 -14.789622 -8.194967 -0.390719 1.301759 20.579376 4.587576 1.827330 13.822073 -1.794477 32.702564 
-0.179760 43.497845 0.174139 0.029469 -6.191406 81.616882 0.000000 0.000000 0.000000 0.126953 -0.058594 6.435407 12.344214 -0.493151 -0.089330 -11.967482 -2.093866 -18.384493 -5.241971 21.277750 25.000000 -99.194923 -11.975396 -4.842407 -39.692799 -1.227367 23.379606 2.242311 8.007827 47.940998 -9.216514 -20.979763 20.885662 77.670006 21.787506 72.418640 12.964630 -11.866244 -15.178655 20.335514 1.370965 -9.845916 -0.801609 9.057553 20.224173 55.869682 5.604966 -1.189956 27.123951 -7.469744 -16.027384 -6.413160 0.068100 1.378674 19.807703 4.216764 1.678811 13.660552 -0.733695 33.226635 
-0.306094 43.714912 0.202982 -0.029443 -5.712890 80.627914 0.000000 0.000000 0.000000 1.191531 0.829899 6.609197 12.040075 -2.166839 -0.209777 -12.232956 -1.387335 -17.216352 -2.408429 20.271204 25.000000 -98.342567 -8.804527 -5.404368 -39.719254 -2.002863 24.217651 1.568103 9.326089 47.914845 -6.918348 -22.774349 21.501259 78.214653 24.393976 72.133781 12.761858 -11.763780 -16.731575 19.509678 0.716636 -10.096998 -4.062259 9.643848 20.309004 59.409756 5.855392 -1.264079 27.528358 -5.825348 -17.046133 -4.069208 0.448932 1.403460 18.723656 3.598315 1.457065 14.152948 0.800950 33.815125 
-0.458810 43.955269 0.189192 0.196041 -4.941378 79.357338 0.000000 0.000000 0.000000 2.549453 1.268275 6.677763 11.824574 -3.871917 -0.323824 -12.413080 -0.537845 -15.516031 0.361008 19.294664 24.487555 -97.222267 -5.366393 -6.173015 -40.091358 -3.099628 24.862921 1.027587 10.075627 47.888435 -4.510192 -24.555195 22.313301 78.497093 27.267670 71.631111 13.086333 -12.276105 -16.992939 19.017586 0.034442 -10.351582 -6.747179 9.830583 20.242870 61.097504 5.405622 -1.431541 27.033009 -4.024876 -17.884039 -1.509207 0.496173 1.356529 17.571812 2.866560 1.208097 15.059879 2.595689 34.447815 
-0.643699 44.179890 0.129844 0.675710 -4.277048 78.181442 0.000000 0.000000 0.000000 3.711805 1.237633 6.642976 11.670509 -5.207705 -0.429380 -12.490440 0.246004 -14.001146 2.497680 18.649885 23.737476 -96.411720 -1.933897 -6.803838 -40.515594 -4.022787 24.743862 0.732484 10.312000 47.922810 -2.582313 -26.084898 23.040689 78.361900 30.097204 70.903938 13.840566 -13.196186 -16.479799 18.743223 -0.454411 -10.579280 -9.334712 9.655370 20.007629 60.963791 4.576008 -1.612576 25.748158 -1.778745 -18.534431 0.768732 0.146161 1.184017 16.627972 2.242500 0.990044 15.834417 4.121136 34.718552 
-0.840123 44.362801 0.039086 1.252738 -3.788160 77.211685 0.000000 0.000000 0.000000 4.590456 0.934493 6.540020 11.504077 -6.179380 -0.497884 -12.404911 0.875192 -13.089954 3.944000 18.244905 23.253365 -95.931206 1.130337 -7.237010 -40.792706 -4.626208 24.005409 0.538014 10.486070 48.010071 -1.124673 -27.181492 23.656744 77.781303 32.627254 69.986351 14.716916 -14.159055 -16.106388 18.343893 -0.713489 -10.767054 -11.617715 9.232675 19.687643 59.121845 3.568671 -1.787982 23.927233 0.935661 -19.000145 2.674875 -0.419466 0.972104 15.914846 1.813249 0.828176 16.258984 5.085769 34.775894 
-1.028160 44.493443 -0.063989 1.839263 -3.445494 76.305054 0.000000 0.000000 0.000000 5.254119 0.515404 6.434201 11.316283 -6.975161 -0.549459 -12.339990 1.340741 -12.427009 5.031660 17.899101 22.902994 -95.591331 3.708515 -7.586693 -40.793694 -4.966760 23.403725 0.354899 10.788058 48.055321 0.138181 -27.883242 24.236399 77.010849 34.746441 69.057411 15.531968 -15.116761 -16.304251 17.521013 -1.086653 -10.987582 -13.315547 8.762948 19.378836 55.651550 2.367808 -1.909923 22.558048 3.376234 -19.290869 4.265629 -1.072887 0.721745 15.441844 1.546885 0.771304 16.465696 5.814831 34.609161 
-1.187661 44.581211 -0.171375 2.278904 -3.181081 75.263756 0.000000 0.000000 0.000000 5.781283 0.194319 6.338066 11.205600 -7.648221 -0.602234 -12.343393 1.678194 -11.559990 6.023123 17.558184 22.601099 -95.342377 5.959516 -7.890882 -40.582016 -5.009954 23.626112 0.002938 11.167952 47.983311 1.394598 -28.395708 24.849617 76.572571 36.612728 68.371246 15.866299 -15.994061 -17.255596 16.338427 -1.445720 -11.215371 -14.174138 8.459768 19.194424 50.464668 1.041097 -1.978824 21.757223 4.278946 -19.041391 5.744388 -1.637482 0.524983 15.160914 1.312778 0.681030 16.536507 6.726922 34.206051 
-1.303301 44.629139 -0.282667 2.523162 -3.073196 74.053764 0.000000 0.000000 0.000000 6.064459 0.077688 6.307096 11.104915 -8.283190 -0.646250 -12.307989 1.979674 -10.580330 6.982773 17.171143 22.316805 -95.117813 7.916023 -8.166899 -40.196301 -4.856736 24.469206 -0.556703 11.789928 47.801731 2.561619 -28.899025 25.000000 76.424355 38.281887 67.871704 16.005741 -16.354635 -19.230473 15.232520 -1.520045 -11.308196 -14.227738 8.397534 19.168736 43.889202 -0.322367 -1.945994 21.428635 3.212506 -18.113024 7.132010 -2.067889 0.394300 14.976871 1.042267 0.611985 16.458054 7.917594 33.831772 
-1.369710 44.638382 -0.394047 2.572251 -3.151125 72.748810 0.000000 0.000000 0.000000 6.074253 0.194216 6.329294 11.092755 -8.867981 -0.690965 -12.331813 2.280411 -9.563223 7.835416 16.750519 22.093800 -94.908493 9.588209 -8.432268 -39.827900 -4.671531 25.193996 -1.149412 12.645053 47.611271 3.555566 -29.371262 25.000000 76.522682 39.624756 67.605621 16.201225 -16.461016 -20.977079 14.229380 -1.493827 -11.372956 -13.685669 8.517965 19.257135 36.938484 -1.600250 -1.892017 21.612934 1.437112 -17.154692 8.370740 -2.301573 0.291843 14.879131 0.717516 0.541684 16.296917 9.203606 33.525612 
-1.370394 44.610477 -0.503549 2.308334 -3.220047 71.422661 0.000000 0.000000 0.000000 6.035480 0.592401 6.420153 11.206898 -9.341840 -0.727666 -12.541957 2.577847 -8.564854 8.494967 16.445290 21.924957 -94.791832 10.991922 -8.618576 -39.476364 -4.586353 25.344307 -1.729344 13.462116 47.446941 4.314869 -29.661810 25.000000 76.791260 40.577583 67.514580 16.255369 -16.490900 -21.734493 13.622931 -0.972579 -11.346862 -12.536423 8.873168 19.476450 30.310934 -2.858028 -1.796265 22.218262 0.450884 -16.861149 9.743175 -2.294501 0.306026 14.816145 0.370899 0.422229 16.103880 10.351750 33.093792 
-1.299505 44.535141 -0.613638 1.780243 -3.269909 70.210533 0.000000 0.000000 0.000000 5.958331 1.194685 6.560402 11.462748 -9.580492 -0.744053 -13.024922 2.787311 -7.793698 8.844401 16.328285 21.832981 -94.787445 12.135930 -8.725063 -39.139786 -4.835336 24.289104 -1.862215 14.364201 47.469250 4.683208 -29.641590 25.000000 76.985939 41.018673 67.512787 16.523058 -16.657486 -21.451914 13.831280 -0.611659 -11.222849 -11.170998 9.353930 19.763245 25.042702 -3.989909 -1.715887 23.043917 0.680450 -17.395800 11.334627 -2.079791 0.336062 14.821609 -0.009642 0.350694 15.956654 11.269159 32.461308 
-1.165985 44.399651 -0.732762 1.222816 -3.368375 69.371056 0.000000 0.000000 0.000000 5.705852 1.768543 6.700332 11.815271 -9.455772 -0.733692 -13.699778 2.792198 -7.413870 8.779378 16.530846 21.815218 -94.990326 12.839799 -8.628365 -38.879276 -5.384274 21.847191 -1.152919 15.902858 47.809998 4.443411 -29.327810 25.000000 77.082909 40.741421 67.633682 17.082800 -17.048527 -20.051254 14.589089 -0.334948 -11.068274 -10.222302 9.770679 20.002304 22.149572 -4.726859 -1.705752 23.873278 1.550339 -17.615034 12.897368 -1.913689 0.362252 15.013888 -0.361120 0.279233 15.792253 11.856863 32.027531 
